<svg width="24" height="27" viewBox="0 0 24 27" fill="none" xmlns="http://www.w3.org/2000/svg">
<path d="M4.633 1L1 5.844V22.798C1 23.4404 1.25517 24.0564 1.70939 24.5106C2.1636 24.9648 2.77965 25.22 3.422 25.22H20.376C21.0184 25.22 21.6344 24.9648 22.0886 24.5106C22.5428 24.0564 22.798 23.4404 22.798 22.798V5.844L19.165 1H4.633Z" stroke="#0D1821" stroke-width="2" stroke-linecap="round" stroke-linejoin="round"/>
<path d="M1 5.84375H22.798" stroke="#0D1821" stroke-width="2" stroke-linecap="round" stroke-linejoin="round"/>
<path d="M16.7427 10.6875C16.7427 11.9722 16.2323 13.2043 15.3239 14.1127C14.4155 15.0212 13.1834 15.5315 11.8987 15.5315C10.614 15.5315 9.38189 15.0212 8.47346 14.1127C7.56504 13.2043 7.05469 11.9722 7.05469 10.6875" stroke="#0D1821" stroke-width="2" stroke-linecap="round" stroke-linejoin="round"/>
</svg>
