<svg width="69" height="69" viewBox="0 0 69 69" fill="none" xmlns="http://www.w3.org/2000/svg">
<circle cx="34.5" cy="34.5" r="34.5" fill="#F9F9F9"/>
<path d="M49 40.7941C49 40.3214 48.8981 39.8533 48.7002 39.4165C48.5023 38.9798 48.2123 38.583 47.8466 38.2488C47.481 37.9146 47.0469 37.6495 46.5692 37.4688C46.0915 37.288 45.5795 37.1951 45.0625 37.1953H24.9375C24.4204 37.1951 23.9082 37.2881 23.4304 37.4689C22.9526 37.6498 22.5184 37.915 22.1528 38.2493C21.7871 38.5837 21.4971 38.9807 21.2993 39.4176C21.1015 39.8546 20.9998 40.3228 21 40.7957V41.719C21 43.148 21.5583 44.5289 22.5715 45.6155C25.3138 48.5502 29.4893 50 34.993 50C40.4985 50 44.6757 48.5518 47.4215 45.6171C48.4399 44.5299 48.9998 43.1457 49 41.7142V40.7941ZM24.9358 39.5956H45.0625C45.7852 39.5956 46.3715 40.1316 46.3715 40.7957V41.7158C46.3718 42.5742 46.0366 43.4045 45.4265 44.0569C43.2267 46.406 39.7845 47.5981 34.9913 47.5981C30.1997 47.5981 26.7593 46.406 24.5665 44.0569C23.9578 43.4051 23.6233 42.5761 23.6233 41.719V40.7941C23.6237 40.4764 23.762 40.1718 24.0077 39.9471C24.2534 39.7224 24.5883 39.596 24.9358 39.5956ZM43.7447 26.002C43.745 24.3169 43.1634 22.6748 42.0829 21.3097C41.0024 19.9447 39.4781 18.9265 37.7275 18.4002C35.9768 17.8739 34.0891 17.8665 32.3336 18.379C30.5781 18.8915 29.0443 19.8977 27.951 21.2542C27.8242 21.2175 27.692 21.1986 27.559 21.1982H23.1875C22.8394 21.1982 22.5056 21.3246 22.2594 21.5497C22.0133 21.7748 21.875 22.08 21.875 22.3983V31.1962C21.8745 31.7743 21.9987 32.3469 22.2403 32.8812C22.482 33.4154 22.8364 33.9009 23.2833 34.3099C23.7302 34.7188 24.2609 35.0433 24.845 35.2646C25.4291 35.486 26.0552 35.5999 26.6875 35.5999H27.125V35.5935H27.1425C27.439 35.5939 27.7307 35.5253 27.9902 35.3941C28.2497 35.263 28.4684 35.0736 28.6257 34.8437C28.783 34.6139 28.8737 34.3513 28.8893 34.0805C28.9049 33.8098 28.8449 33.5399 28.7149 33.2962C28.5848 33.0526 28.3891 32.8432 28.1462 32.6878C27.9032 32.5324 27.621 32.4362 27.3261 32.4081C27.0312 32.38 26.7333 32.4211 26.4606 32.5273C26.1878 32.6336 25.9491 32.8016 25.767 33.0156C25.388 32.8548 25.0673 32.5982 24.8428 32.2761C24.6183 31.954 24.4993 31.5798 24.5 31.1978V30.7993H25.809C26.474 30.7993 27.0918 30.6041 27.594 30.2745C28.6062 31.7418 30.1125 32.8685 31.886 33.4849C33.6594 34.1013 35.6039 34.1738 37.4265 33.6917C39.249 33.2096 40.8507 32.1989 41.9903 30.8119C43.13 29.4249 43.7457 27.7368 43.7447 26.002ZM26.2448 25.8323C26.2422 25.9454 26.2422 26.0585 26.2448 26.1716V27.9974C26.2448 28.1035 26.1987 28.2052 26.1166 28.2803C26.0346 28.3553 25.9233 28.3974 25.8073 28.3974H24.5V23.6001H26.2465L26.2448 25.8323ZM28.8697 26.1444V25.8595C28.9107 24.387 29.5845 22.9884 30.7451 21.9669C31.9058 20.9453 33.4598 20.383 35.0707 20.4017C36.6815 20.4205 38.2194 21.0187 39.3512 22.0669C40.4831 23.1151 41.1178 24.5289 41.1178 26.002C41.1178 27.475 40.4831 28.8888 39.3512 29.937C38.2194 30.9852 36.6815 31.5834 35.0707 31.6022C33.4598 31.6209 31.9058 31.0586 30.7451 30.037C29.5845 29.0155 28.9107 27.6169 28.8697 26.1444Z" fill="#5BAA60"/>
</svg>
